<?xml version="1.0" encoding="UTF-8" standalone="no"?>
<svg
   xmlns:dc="http://purl.org/dc/elements/1.1/"
   xmlns:cc="http://creativecommons.org/ns#"
   xmlns:rdf="http://www.w3.org/1999/02/22-rdf-syntax-ns#"
   xmlns:svg="http://www.w3.org/2000/svg"
   xmlns="http://www.w3.org/2000/svg"
   viewBox="0 0 400 89.199997"
   height="89.199997"
   width="400"
   xml:space="preserve"
   id="svg2"
   version="1.1"><metadata
     id="metadata8"><rdf:RDF><cc:Work
         rdf:about=""><dc:format>image/svg+xml</dc:format><dc:type
           rdf:resource="http://purl.org/dc/dcmitype/StillImage" /></cc:Work></rdf:RDF></metadata><defs
     id="defs6" /><g
     transform="matrix(1.3333333,0,0,-1.3333333,0,89.2)"
     id="g10"><g
       transform="scale(0.1)"
       id="g12"><path
         id="path14"
         style="fill:#100f0d;fill-opacity:1;fill-rule:nonzero;stroke:none"
         d="m 1180.54,92.3242 c -5.53,0 -9.93,-1.7969 -13.23,-5.3906 -3.29,-3.6133 -5.22,-8.5938 -5.81,-14.9688 h 36.02 c 0,6.5821 -1.47,11.6211 -4.4,15.125 -2.93,3.4961 -7.12,5.2344 -12.58,5.2344 z m 2.84,-62.6562 c -10.19,0 -18.22,3.0859 -24.11,9.2968 -5.88,6.211 -8.83,14.8243 -8.83,25.8399 0,11.1016 2.73,19.9219 8.21,26.4648 5.45,6.5235 12.81,9.8045 22.02,9.8045 8.63,0 15.46,-2.8513 20.48,-8.5232 5.03,-5.6758 7.55,-13.1563 7.55,-22.461 v -6.6132 h -47.45 c 0.21,-8.086 2.26,-14.2188 6.12,-18.418 3.89,-4.1797 9.34,-6.2891 16.38,-6.2891 7.42,0 14.76,1.5625 22,4.668 v -9.2969 c -3.68,-1.6015 -7.18,-2.7461 -10.48,-3.4375 -3.28,-0.6836 -7.24,-1.0351 -11.89,-1.0351" /><path
         id="path16"
         style="fill:#100f0d;fill-opacity:1;fill-rule:nonzero;stroke:none"
         d="m 1272.34,30.918 v 44.5703 c 0,5.6055 -1.28,9.8047 -3.82,12.5586 -2.56,2.7734 -6.56,4.1601 -12.02,4.1601 -7.2,0 -12.49,-1.9531 -15.84,-5.8515 -3.34,-3.8946 -5.03,-10.3203 -5.03,-19.2852 V 30.918 h -10.42 v 68.8867 h 8.47 l 1.71,-9.4219 h 0.5 c 2.14,3.3867 5.14,6.0235 8.99,7.8867 3.85,1.8675 8.15,2.8045 12.88,2.8045 8.29,0 14.54,-2.0115 18.73,-6.0154 4.19,-3.9844 6.28,-10.3906 6.28,-19.1914 V 30.918 h -10.43" /><path
         id="path18"
         style="fill:#100f0d;fill-opacity:1;fill-rule:nonzero;stroke:none"
         d="m 1328.96,38.4063 c 7.1,0 12.27,1.9375 15.48,5.8125 3.22,3.8789 4.81,10.1289 4.81,18.7578 v 2.1992 c 0,9.7656 -1.62,16.7265 -4.87,20.8984 -3.25,4.1797 -8.44,6.25 -15.56,6.25 -6.11,0 -10.79,-2.3828 -14.04,-7.1289 -3.26,-4.7461 -4.88,-11.4726 -4.88,-20.1367 0,-8.7969 1.61,-15.4492 4.84,-19.9297 3.23,-4.4844 7.97,-6.7226 14.22,-6.7226 z m 20.85,1.7617 h -0.56 c -4.83,-7.0039 -12.02,-10.5 -21.62,-10.5 -9.01,0 -16.03,3.0664 -21.04,9.2383 -5,6.1523 -7.5,14.9218 -7.5,26.2695 0,11.3555 2.51,20.1758 7.54,26.4648 5.03,6.2891 12.03,9.4334 21,9.4334 9.34,0 16.5,-3.3982 21.49,-10.1951 h 0.81 l -0.43,4.9609 -0.25,4.8442 v 28.039 h 10.43 V 30.918 h -8.49 l -1.38,9.25" /><path
         id="path20"
         style="fill:#100f0d;fill-opacity:1;fill-rule:nonzero;stroke:none"
         d="m 1434.91,38.2695 c 1.85,0 3.63,0.1368 5.34,0.4219 1.72,0.2734 3.09,0.5469 4.1,0.8399 v -7.9766 c -1.15,-0.5586 -2.81,-0.9961 -5.01,-1.3594 -2.18,-0.3515 -4.17,-0.5273 -5.94,-0.5273 -13.32,0 -19.97,7.0117 -19.97,21.0547 v 40.9882 h -9.88 v 5.0274 l 9.88,4.3357 4.38,14.707 h 6.04 V 99.8047 h 20 v -8.0938 h -20 V 51.1602 c 0,-4.1485 0.98,-7.3321 2.96,-9.5586 1.97,-2.2071 4.67,-3.3321 8.1,-3.3321" /><path
         id="path22"
         style="fill:#100f0d;fill-opacity:1;fill-rule:nonzero;stroke:none"
         d="m 1463.81,65.4297 c 0,-8.8086 1.76,-15.5078 5.27,-20.1172 3.53,-4.6094 8.69,-6.9062 15.53,-6.9062 6.84,0 12.01,2.2968 15.56,6.875 3.53,4.6015 5.3,11.3007 5.3,20.1484 0,8.75 -1.77,15.4101 -5.3,19.9531 -3.55,4.5391 -8.77,6.8242 -15.69,6.8242 -6.82,0 -11.99,-2.2461 -15.47,-6.7304 -3.46,-4.4805 -5.2,-11.1602 -5.2,-20.0469 z m 52.47,0 c 0,-11.2305 -2.83,-20 -8.48,-26.3086 -5.66,-6.3086 -13.47,-9.4531 -23.44,-9.4531 -6.17,0 -11.64,1.4453 -16.42,4.3359 -4.78,2.8906 -8.46,7.0313 -11.06,12.4492 -2.59,5.4024 -3.88,11.7305 -3.88,18.9766 0,11.2305 2.8,19.9687 8.41,26.2422 5.61,6.2578 13.4,9.4021 23.38,9.4021 9.64,0 17.3,-3.2224 22.97,-9.6209 5.69,-6.414 8.52,-15.0859 8.52,-26.0234" /><path
         id="path24"
         style="fill:#100f0d;fill-opacity:1;fill-rule:nonzero;stroke:none"
         d="m 1591.71,92.3242 c -5.54,0 -9.94,-1.7969 -13.23,-5.3906 -3.3,-3.6133 -5.24,-8.5938 -5.81,-14.9688 h 36 c 0,6.5821 -1.46,11.6211 -4.39,15.125 -2.93,3.4961 -7.13,5.2344 -12.57,5.2344 z m 2.83,-62.6562 c -10.19,0 -18.22,3.0859 -24.11,9.2968 -5.89,6.211 -8.83,14.8243 -8.83,25.8399 0,11.1016 2.74,19.9219 8.2,26.4648 5.46,6.5235 12.81,9.8045 22.04,9.8045 8.62,0 15.45,-2.8513 20.48,-8.5232 5.03,-5.6758 7.54,-13.1563 7.54,-22.461 v -6.6132 h -47.45 c 0.21,-8.086 2.25,-14.2188 6.13,-18.418 3.87,-4.1797 9.33,-6.2891 16.36,-6.2891 7.43,0 14.77,1.5625 22.01,4.668 v -9.2969 c -3.69,-1.6015 -7.17,-2.7461 -10.46,-3.4375 -3.3,-0.6836 -7.27,-1.0351 -11.91,-1.0351" /><path
         id="path26"
         style="fill:#100f0d;fill-opacity:1;fill-rule:nonzero;stroke:none"
         d="m 1683.5,30.918 v 44.5703 c 0,5.6055 -1.27,9.8047 -3.83,12.5586 -2.55,2.7734 -6.55,4.1601 -12.01,4.1601 -7.2,0 -12.48,-1.9531 -15.83,-5.8515 -3.35,-3.8946 -5.03,-10.3203 -5.03,-19.2852 V 30.918 h -10.43 v 68.8867 h 8.48 l 1.69,-9.4219 h 0.51 c 2.14,3.3867 5.14,6.0235 8.99,7.8867 3.84,1.8675 8.15,2.8045 12.88,2.8045 8.3,0 14.54,-2.0115 18.74,-6.0154 4.19,-3.9844 6.29,-10.3906 6.29,-19.1914 V 30.918 h -10.45" /><path
         id="path28"
         style="fill:#100f0d;fill-opacity:1;fill-rule:nonzero;stroke:none"
         d="m 1740.11,38.4063 c 7.12,0 12.28,1.9375 15.49,5.8125 3.21,3.8789 4.81,10.1289 4.81,18.7578 v 2.1992 c 0,9.7656 -1.62,16.7265 -4.87,20.8984 -3.25,4.1797 -8.43,6.25 -15.56,6.25 -6.12,0 -10.8,-2.3828 -14.05,-7.1289 -3.24,-4.7461 -4.88,-11.4726 -4.88,-20.1367 0,-8.7969 1.64,-15.4492 4.85,-19.9297 3.22,-4.4844 7.96,-6.7226 14.21,-6.7226 z m 20.87,1.7617 h -0.57 c -4.82,-7.0039 -12.03,-10.5 -21.62,-10.5 -9.01,0 -16.02,3.0664 -21.03,9.2383 -5,6.1523 -7.52,14.9218 -7.52,26.2695 0,11.3555 2.52,20.1758 7.55,26.4648 5.02,6.2891 12.02,9.4334 21,9.4334 9.34,0 16.5,-3.3982 21.48,-10.1951 h 0.83 l -0.44,4.9609 -0.25,4.8442 v 28.039 h 10.43 V 30.918 h -8.49 l -1.37,9.25" /><path
         id="path30"
         style="fill:#100f0d;fill-opacity:1;fill-rule:nonzero;stroke:none"
         d="m 1846.07,38.2695 c 1.85,0 3.64,0.1368 5.36,0.4219 1.7,0.2734 3.07,0.5469 4.08,0.8399 v -7.9766 c -1.13,-0.5586 -2.8,-0.9961 -5,-1.3594 -2.2,-0.3515 -4.18,-0.5273 -5.94,-0.5273 -13.33,0 -19.99,7.0117 -19.99,21.0547 v 40.9882 h -9.86 v 5.0274 l 9.86,4.3357 4.4,14.707 h 6.04 V 99.8047 H 1855 v -8.0938 h -19.98 V 51.1602 c 0,-4.1485 0.98,-7.3321 2.95,-9.5586 1.97,-2.2071 4.68,-3.3321 8.1,-3.3321" /><path
         id="path32"
         style="fill:#100f0d;fill-opacity:1;fill-rule:nonzero;stroke:none"
         d="m 1894.26,92.3242 c -5.53,0 -9.94,-1.7969 -13.22,-5.3906 -3.31,-3.6133 -5.25,-8.5938 -5.83,-14.9688 h 36.01 c 0,6.5821 -1.45,11.6211 -4.38,15.125 -2.95,3.4961 -7.13,5.2344 -12.58,5.2344 z m 2.83,-62.6562 c -10.19,0 -18.22,3.0859 -24.1,9.2968 -5.9,6.211 -8.84,14.8243 -8.84,25.8399 0,11.1016 2.73,19.9219 8.2,26.4648 5.47,6.5235 12.81,9.8045 22.03,9.8045 8.63,0 15.46,-2.8513 20.49,-8.5232 5.03,-5.6758 7.55,-13.1563 7.55,-22.461 v -6.6132 h -47.46 c 0.22,-8.086 2.26,-14.2188 6.13,-18.418 3.87,-4.1797 9.33,-6.2891 16.37,-6.2891 7.42,0 14.75,1.5625 22,4.668 v -9.2969 c -3.7,-1.6015 -7.17,-2.7461 -10.47,-3.4375 -3.28,-0.6836 -7.25,-1.0351 -11.9,-1.0351" /><path
         id="path34"
         style="fill:#100f0d;fill-opacity:1;fill-rule:nonzero;stroke:none"
         d="m 1983.36,49.7266 c 0,-6.4258 -2.4,-11.3672 -7.18,-14.8438 -4.77,-3.4765 -11.47,-5.2148 -20.11,-5.2148 -9.13,0 -16.26,1.4453 -21.37,4.3359 v 9.6875 c 3.32,-1.6797 6.86,-3.0078 10.65,-3.9648 3.79,-0.9766 7.45,-1.4571 10.97,-1.4571 5.46,0 9.64,0.8711 12.57,2.6094 2.95,1.7383 4.41,4.3945 4.41,7.9492 0,2.6953 -1.17,4.9805 -3.5,6.8946 -2.32,1.914 -6.85,4.1523 -13.6,6.7578 -6.41,2.3828 -10.97,4.4726 -13.67,6.25 -2.71,1.7773 -4.72,3.8086 -6.04,6.0664 -1.31,2.2539 -1.98,4.9609 -1.98,8.1133 0,5.6054 2.29,10.039 6.86,13.2812 4.57,3.25 10.84,4.8826 18.79,4.8826 7.42,0 14.66,-1.5154 21.74,-4.531 l -3.71,-8.4961 c -6.9,2.8515 -13.17,4.2773 -18.79,4.2773 -4.94,0 -8.67,-0.7695 -11.18,-2.3242 -2.52,-1.543 -3.78,-3.6914 -3.78,-6.4062 0,-1.8438 0.48,-3.418 1.42,-4.7071 0.95,-1.3086 2.46,-2.539 4.56,-3.7109 2.09,-1.1836 6.11,-2.8711 12.07,-5.086 8.16,-2.9804 13.69,-5.9804 16.55,-8.996 2.87,-3.0196 4.32,-6.8086 4.32,-11.3672" /><path
         id="path36"
         style="fill:#100f0d;fill-opacity:1;fill-rule:nonzero;stroke:none"
         d="m 2021.28,38.2695 c 1.85,0 3.64,0.1368 5.35,0.4219 1.71,0.2734 3.09,0.5469 4.09,0.8399 v -7.9766 c -1.14,-0.5586 -2.81,-0.9961 -5.01,-1.3594 -2.18,-0.3515 -4.18,-0.5273 -5.93,-0.5273 -13.33,0 -19.99,7.0117 -19.99,21.0547 v 40.9882 h -9.87 v 5.0274 l 9.87,4.3357 4.4,14.707 h 6.02 V 99.8047 h 20 v -8.0938 h -20 V 51.1602 c 0,-4.1485 1,-7.3321 2.97,-9.5586 1.98,-2.2071 4.67,-3.3321 8.1,-3.3321" /><path
         id="path38"
         style="fill:#100f0d;fill-opacity:1;fill-rule:nonzero;stroke:none"
         d="m 2053.61,30.918 h -10.42 v 68.8867 h 10.42 z m -11.31,87.559 c 0,2.39 0.59,4.14 1.76,5.253 1.18,1.106 2.65,1.661 4.42,1.661 1.67,0 3.1,-0.567 4.32,-1.7 1.22,-1.132 1.82,-2.871 1.82,-5.214 0,-2.344 -0.6,-4.09 -1.82,-5.247 -1.22,-1.16 -2.65,-1.726 -4.32,-1.726 -1.77,0 -3.24,0.566 -4.42,1.726 -1.17,1.157 -1.76,2.903 -1.76,5.247" /><path
         id="path40"
         style="fill:#100f0d;fill-opacity:1;fill-rule:nonzero;stroke:none"
         d="m 2121.59,30.918 v 44.5703 c 0,5.6055 -1.27,9.8047 -3.83,12.5586 -2.55,2.7734 -6.55,4.1601 -12,4.1601 -7.21,0 -12.49,-1.9531 -15.84,-5.8515 -3.35,-3.8946 -5.03,-10.3203 -5.03,-19.2852 V 30.918 h -10.43 v 68.8867 h 8.49 l 1.69,-9.4219 h 0.5 c 2.15,3.3867 5.14,6.0235 8.99,7.8867 3.85,1.8675 8.16,2.8045 12.88,2.8045 8.3,0 14.54,-2.0115 18.74,-6.0154 4.19,-3.9844 6.29,-10.3906 6.29,-19.1914 V 30.918 h -10.45" /><path
         id="path42"
         style="fill:#100f0d;fill-opacity:1;fill-rule:nonzero;stroke:none"
         d="m 2159.29,77.7422 c 0,-4.8125 1.35,-8.4649 4.08,-10.9258 2.72,-2.4805 6.51,-3.7109 11.37,-3.7109 10.19,0 15.28,4.9531 15.28,14.832 0,10.3438 -5.16,15.5313 -15.47,15.5313 -4.9,0 -8.67,-1.3204 -11.31,-3.9649 -2.63,-2.6484 -3.95,-6.5547 -3.95,-11.7617 z m -5.67,-58.3867 c 0,-3.7305 1.58,-6.5508 4.72,-8.4883 3.14,-1.92189 7.65,-2.87892 13.52,-2.87892 8.75,0 15.24,1.3086 19.45,3.92582 4.21,2.6172 6.31,6.1718 6.31,10.6523 0,3.7227 -1.15,6.3203 -3.45,7.7539 -2.31,1.457 -6.65,2.168 -13.01,2.168 h -12.51 c -4.74,0 -8.43,-1.1211 -11.06,-3.3867 -2.65,-2.2657 -3.97,-5.5078 -3.97,-9.7461 z m 54.94,80.4492 v -6.582 l -12.76,-1.5118 c 1.18,-1.4765 2.23,-3.3906 3.15,-5.7539 0.91,-2.3711 1.37,-5.039 1.37,-8.0195 0,-6.7461 -2.29,-12.1289 -6.91,-16.1523 -4.61,-4.0118 -10.93,-6.0235 -18.98,-6.0235 -2.05,0 -3.98,0.1563 -5.78,0.5 -4.45,-2.3554 -6.67,-5.3047 -6.67,-8.8711 0,-1.8828 0.77,-3.2812 2.34,-4.1758 1.54,-0.9023 4.21,-1.3593 7.97,-1.3593 h 12.2 c 7.46,0 13.19,-1.5742 17.19,-4.7071 4,-3.1445 6,-7.7148 6,-13.7109 0,-7.6172 -3.06,-13.4258 -9.17,-17.42969 C 2192.38,2.00391 2183.46,0 2171.72,0 c -9,0 -15.95,1.67969 -20.82,5.02734 -4.88,3.35157 -7.34,8.07816 -7.34,14.21096 0,4.1797 1.35,7.8125 4.03,10.8789 2.68,3.0469 6.45,5.1172 11.32,6.2109 -1.77,0.8008 -3.24,2.0313 -4.44,3.711 -1.19,1.6797 -1.78,3.6328 -1.78,5.8398 0,2.5195 0.66,4.707 2.01,6.6016 1.34,1.8828 3.44,3.7109 6.34,5.4687 -3.56,1.4649 -6.46,3.9531 -8.71,7.4805 -2.23,3.5156 -3.35,7.5391 -3.35,12.0586 0,7.5508 2.26,13.3711 6.79,17.4531 4.52,4.082 10.93,6.1326 19.22,6.1326 3.6,0 6.86,-0.429 9.75,-1.2693 h 23.82" /><path
         id="path44"
         style="fill:#100f0d;fill-opacity:1;fill-rule:nonzero;stroke:none"
         d="m 2284.61,91.7109 h -17.54 V 30.918 h -10.43 v 60.7929 h -12.31 v 4.7071 l 12.31,3.766 v 3.839 c 0,16.922 7.4,25.391 22.19,25.391 3.65,0 7.93,-0.73 12.82,-2.195 l -2.7,-8.364 c -4.03,1.301 -7.46,1.946 -10.31,1.946 -3.93,0 -6.85,-1.309 -8.73,-3.926 -1.89,-2.617 -2.84,-6.816 -2.84,-12.598 v -4.4723 h 17.54 v -8.0938" /><path
         id="path46"
         style="fill:#100f0d;fill-opacity:1;fill-rule:nonzero;stroke:none"
         d="m 2302.87,65.4297 c 0,-8.8086 1.76,-15.5078 5.28,-20.1172 3.52,-4.6094 8.7,-6.9062 15.52,-6.9062 6.84,0 12.02,2.2968 15.57,6.875 3.54,4.6015 5.3,11.3007 5.3,20.1484 0,8.75 -1.76,15.4101 -5.3,19.9531 -3.55,4.5391 -8.78,6.8242 -15.69,6.8242 -6.83,0 -11.99,-2.2461 -15.46,-6.7304 -3.48,-4.4805 -5.22,-11.1602 -5.22,-20.0469 z m 52.48,0 c 0,-11.2305 -2.82,-20 -8.47,-26.3086 -5.67,-6.3086 -13.48,-9.4531 -23.46,-9.4531 -6.15,0 -11.62,1.4453 -16.4,4.3359 -4.77,2.8906 -8.47,7.0313 -11.06,12.4492 -2.59,5.4024 -3.9,11.7305 -3.9,18.9766 0,11.2305 2.81,19.9687 8.43,26.2422 5.6,6.2578 13.4,9.4021 23.38,9.4021 9.63,0 17.28,-3.2224 22.97,-9.6209 5.68,-6.414 8.51,-15.0859 8.51,-26.0234" /><path
         id="path48"
         style="fill:#100f0d;fill-opacity:1;fill-rule:nonzero;stroke:none"
         d="m 2403.79,101.074 c 3.07,0 5.8,-0.254 8.22,-0.761 l -1.43,-9.6763 c -2.86,0.6328 -5.37,0.9336 -7.55,0.9336 -5.58,0 -10.33,-2.2617 -14.3,-6.7851 -3.95,-4.5313 -5.94,-10.1563 -5.94,-16.9024 V 30.918 h -10.43 v 68.8867 h 8.62 l 1.19,-12.7539 h 0.5 c 2.56,4.4805 5.63,7.9492 9.23,10.3711 3.61,2.4219 7.56,3.6521 11.89,3.6521" /><path
         id="path50"
         style="fill:#100f0d;fill-opacity:1;fill-rule:nonzero;stroke:none"
         d="m 2500.33,69.7656 -10.68,28.4766 c -1.39,3.5938 -2.81,8.0278 -4.28,13.2618 -0.93,-4.024 -2.24,-8.438 -3.96,-13.2618 L 2470.6,69.7656 Z m 14.77,-38.8476 -11.44,29.2265 h -36.83 L 2455.51,30.918 h -10.81 l 36.34,92.273 h 8.98 l 36.13,-92.273 h -11.05" /><path
         id="path52"
         style="fill:#100f0d;fill-opacity:1;fill-rule:nonzero;stroke:none"
         d="m 2583.07,30.918 v 44.5703 c 0,5.6055 -1.27,9.8047 -3.83,12.5586 -2.55,2.7734 -6.55,4.1601 -12,4.1601 -7.21,0 -12.49,-1.9531 -15.84,-5.8515 -3.35,-3.8946 -5.03,-10.3203 -5.03,-19.2852 V 30.918 h -10.43 v 68.8867 h 8.48 l 1.69,-9.4219 h 0.51 c 2.14,3.3867 5.14,6.0235 8.99,7.8867 3.84,1.8675 8.15,2.8045 12.88,2.8045 8.3,0 14.54,-2.0115 18.74,-6.0154 4.19,-3.9844 6.29,-10.3906 6.29,-19.1914 V 30.918 h -10.45" /><path
         id="path54"
         style="fill:#100f0d;fill-opacity:1;fill-rule:nonzero;stroke:none"
         d="m 2620.76,77.7422 c 0,-4.8125 1.36,-8.4649 4.08,-10.9258 2.73,-2.4805 6.53,-3.7109 11.37,-3.7109 10.2,0 15.28,4.9531 15.28,14.832 0,10.3438 -5.15,15.5313 -15.45,15.5313 -4.91,0 -8.68,-1.3204 -11.32,-3.9649 -2.64,-2.6484 -3.96,-6.5547 -3.96,-11.7617 z m -5.66,-58.3867 c 0,-3.7305 1.57,-6.5508 4.71,-8.4883 3.15,-1.92189 7.65,-2.87892 13.53,-2.87892 8.75,0 15.23,1.3086 19.44,3.92582 4.21,2.6172 6.31,6.1718 6.31,10.6523 0,3.7227 -1.14,6.3203 -3.45,7.7539 -2.31,1.457 -6.64,2.168 -13,2.168 h -12.51 c -4.74,0 -8.43,-1.1211 -11.07,-3.3867 -2.63,-2.2657 -3.96,-5.5078 -3.96,-9.7461 z m 54.94,80.4492 v -6.582 l -12.76,-1.5118 c 1.18,-1.4765 2.22,-3.3906 3.14,-5.7539 0.92,-2.3711 1.38,-5.039 1.38,-8.0195 0,-6.7461 -2.3,-12.1289 -6.92,-16.1523 -4.61,-4.0118 -10.92,-6.0235 -18.97,-6.0235 -2.05,0 -3.99,0.1563 -5.78,0.5 -4.46,-2.3554 -6.67,-5.3047 -6.67,-8.8711 0,-1.8828 0.78,-3.2812 2.33,-4.1758 1.55,-0.9023 4.21,-1.3593 7.98,-1.3593 h 12.2 c 7.46,0 13.18,-1.5742 17.18,-4.7071 4.01,-3.1445 6,-7.7148 6,-13.7109 0,-7.6172 -3.06,-13.4258 -9.17,-17.42969 C 2653.87,2.00391 2644.94,0 2633.2,0 c -9,0 -15.95,1.67969 -20.83,5.02734 -4.88,3.35157 -7.33,8.07816 -7.33,14.21096 0,4.1797 1.35,7.8125 4.02,10.8789 2.69,3.0469 6.47,5.1172 11.32,6.2109 -1.77,0.8008 -3.23,2.0313 -4.43,3.711 -1.19,1.6797 -1.79,3.6328 -1.79,5.8398 0,2.5195 0.66,4.707 2.01,6.6016 1.35,1.8828 3.45,3.7109 6.35,5.4687 -3.56,1.4649 -6.47,3.9531 -8.71,7.4805 -2.23,3.5156 -3.35,7.5391 -3.35,12.0586 0,7.5508 2.25,13.3711 6.79,17.4531 4.52,4.082 10.92,6.1326 19.21,6.1326 3.62,0 6.86,-0.429 9.75,-1.2693 h 23.83" /><path
         id="path56"
         style="fill:#100f0d;fill-opacity:1;fill-rule:nonzero;stroke:none"
         d="M 2692.7,99.8047 V 55.1172 c 0,-5.6055 1.27,-9.8047 3.83,-12.5664 2.56,-2.7656 6.57,-4.1445 12.01,-4.1445 7.2,0 12.47,1.9648 15.81,5.9023 3.33,3.9453 4.99,10.3789 4.99,19.3047 v 36.1914 h 10.44 V 30.918 h -8.62 l -1.5,9.25 h -0.58 c -2.13,-3.4102 -5.1,-5.9883 -8.88,-7.793 -3.8,-1.8086 -8.13,-2.707 -12.99,-2.707 -8.37,0 -14.65,1.9922 -18.81,5.9765 -4.18,3.9649 -6.26,10.3516 -6.26,19.1016 v 45.0586 h 10.56" /><path
         id="path58"
         style="fill:#100f0d;fill-opacity:1;fill-rule:nonzero;stroke:none"
         d="m 2760.61,30.918 h 10.4297 v 97.8047 H 2760.61 Z" /><path
         id="path60"
         style="fill:#100f0d;fill-opacity:1;fill-rule:nonzero;stroke:none"
         d="m 2810.67,38.2695 c 6.5,0 11.6,1.7891 15.31,5.3438 3.71,3.5742 5.56,8.5547 5.56,14.9609 v 6.2305 l -10.44,-0.4492 c -8.3,-0.2852 -14.27,-1.5821 -17.94,-3.8672 -3.66,-2.2735 -5.5,-5.8203 -5.5,-10.6445 0,-3.7813 1.14,-6.6407 3.42,-8.6133 2.29,-1.9727 5.48,-2.961 9.59,-2.961 z m 23.57,-7.3515 -2.07,9.8047 h -0.51 c -3.44,-4.3047 -6.86,-7.2266 -10.27,-8.7696 -3.42,-1.5234 -7.68,-2.2851 -12.8,-2.2851 -6.83,0 -12.17,1.7578 -16.05,5.2734 -3.87,3.5274 -5.81,8.5352 -5.81,15.0313 0,13.9062 11.12,21.1992 33.37,21.875 l 11.7,0.3593 v 4.2774 c 0,5.4179 -1.17,9.3945 -3.5,11.9844 -2.32,2.5664 -6.03,3.8554 -11.15,3.8554 -5.74,0 -12.24,-1.7578 -19.49,-5.2734 l -3.21,7.9883 c 3.4,1.8359 7.11,3.2812 11.16,4.3242 4.04,1.0587 8.1,1.5747 12.16,1.5747 8.23,0 14.3,-1.8169 18.27,-5.4614 3.96,-3.6602 5.93,-9.5 5.93,-17.5391 V 30.918 h -7.73" /><path
         id="path62"
         style="fill:#100f0d;fill-opacity:1;fill-rule:nonzero;stroke:none"
         d="m 2893.6,101.074 c 3.07,0 5.8,-0.254 8.25,-0.761 l -1.46,-9.6763 c -2.84,0.6328 -5.35,0.9336 -7.54,0.9336 -5.56,0 -10.33,-2.2617 -14.3,-6.7851 -3.96,-4.5313 -5.93,-10.1563 -5.93,-16.9024 V 30.918 h -10.44 v 68.8867 h 8.61 l 1.19,-12.7539 h 0.5 c 2.57,4.4805 5.65,7.9492 9.25,10.3711 3.6,2.4219 7.56,3.6521 11.87,3.6521" /><path
         id="path64"
         style="fill:#100f0d;fill-opacity:1;fill-rule:nonzero;stroke:none"
         d="m 2901.63,6.72656 c -3.94,0 -7.04,0.5586 -9.31,1.69141 v 9.12113 c 2.97,-0.8399 6.08,-1.25 9.31,-1.25 4.14,0 7.3,1.25 9.45,3.7695 2.16,2.5078 3.24,6.1328 3.24,10.8594 v 91.895 h 10.69 V 31.7969 c 0,-7.9492 -2.01,-14.1211 -6.04,-18.4961 -4.02,-4.38283 -9.8,-6.57424 -17.34,-6.57424" /><path
         id="path66"
         style="fill:#100f0d;fill-opacity:1;fill-rule:nonzero;stroke:none"
         d="m 2999.96,55.3711 c 0,-8.0859 -2.93,-14.3945 -8.8,-18.918 -5.87,-4.5195 -13.83,-6.7851 -23.88,-6.7851 -10.9,0 -19.27,1.4062 -25.14,4.2187 v 10.3008 c 3.77,-1.5898 7.88,-2.8477 12.31,-3.7656 4.45,-0.9297 8.85,-1.3985 13.21,-1.3985 7.12,0 12.49,1.3594 16.09,4.0625 3.59,2.6954 5.4,6.4649 5.4,11.2774 0,3.1953 -0.63,5.8047 -1.91,7.832 -1.29,2.0235 -3.42,3.9063 -6.42,5.625 -2.99,1.711 -7.56,3.6641 -13.67,5.8399 -8.55,3.0586 -14.66,6.6914 -18.32,10.8711 -3.66,4.1992 -5.51,9.6679 -5.51,16.4067 0,7.089 2.68,12.714 7.99,16.914 5.32,4.191 12.36,6.289 21.12,6.289 9.13,0 17.54,-1.68 25.2,-5.032 l -3.32,-9.304 c -7.59,3.183 -14.96,4.785 -22.13,4.785 -5.66,0 -10.07,-1.223 -13.26,-3.652 -3.19,-2.43 -4.78,-5.809 -4.78,-10.118 0,-3.1911 0.59,-5.8005 1.76,-7.8317 1.17,-2.0313 3.14,-3.8867 5.95,-5.5977 2.78,-1.6875 7.04,-3.5625 12.79,-5.625 9.63,-3.4258 16.26,-7.1172 19.89,-11.0625 3.62,-3.9375 5.43,-9.0429 5.43,-15.332" /><path
         id="path68"
         style="fill:#100f0d;fill-opacity:1;fill-rule:nonzero;stroke:none"
         d="m 741.648,375.406 h 30 c 28.965,0 50.227,5.039 63.774,15.117 13.531,10.079 20.32,25.821 20.32,47.247 0,19.832 -6.074,34.628 -18.191,44.402 -12.141,9.758 -31.028,14.641 -56.692,14.641 h -39.211 z m 172.192,64.246 c 0,-36.062 -11.809,-63.691 -35.434,-82.898 -23.621,-19.219 -57.234,-28.82 -100.847,-28.82 H 741.648 V 198.73 h -56.445 v 345.329 h 99.438 c 43.14,0 75.457,-8.829 96.961,-26.465 21.496,-17.637 32.238,-43.614 32.238,-77.942" /><path
         id="path70"
         style="fill:#100f0d;fill-opacity:1;fill-rule:nonzero;stroke:none"
         d="m 1099.26,464.691 c 11.17,0 20.39,-0.789 27.63,-2.371 l -5.43,-51.718 c -7.88,1.894 -16.07,2.832 -24.57,2.832 -22.2,0 -40.19,-7.246 -53.97,-21.731 -13.78,-14.48 -20.66,-33.301 -20.66,-56.453 V 198.73 h -55.514 v 261.227 h 43.464 l 7.32,-46.055 h 2.83 c 8.66,15.594 19.96,27.95 33.9,37.09 13.93,9.141 28.93,13.699 45,13.699" /><path
         id="path72"
         style="fill:#100f0d;fill-opacity:1;fill-rule:nonzero;stroke:none"
         d="m 1206.88,329.82 c 0,-60.308 22.28,-90.465 66.85,-90.465 44.08,0 66.13,30.157 66.13,90.465 0,59.688 -22.21,89.512 -66.61,89.512 -23.31,0 -40.2,-7.707 -50.67,-23.144 -10.47,-15.43 -15.7,-37.54 -15.7,-66.368 z m 190.13,0 c 0,-42.672 -10.95,-75.972 -32.83,-99.898 -21.89,-23.945 -52.35,-35.918 -91.41,-35.918 -24.41,0 -45.97,5.508 -64.7,16.543 -18.75,11.016 -33.16,26.836 -43.23,47.48 -10.08,20.625 -15.11,44.551 -15.11,71.793 0,42.364 10.86,75.43 32.58,99.2 21.73,23.777 52.36,35.671 91.89,35.671 37.79,0 67.7,-12.156 89.75,-36.492 22.05,-24.328 33.06,-57.121 33.06,-98.379" /><path
         id="path74"
         style="fill:#100f0d;fill-opacity:1;fill-rule:nonzero;stroke:none"
         d="m 1558.11,238.887 c 13.54,0 27.07,2.129 40.62,6.386 v -41.816 c -6.13,-2.676 -14.05,-4.922 -23.73,-6.738 -9.69,-1.797 -19.73,-2.715 -30.12,-2.715 -52.59,0 -78.88,27.715 -78.88,83.144 v 140.778 h -35.68 v 24.558 l 38.26,20.325 18.9,55.261 h 34.26 v -58.113 h 74.39 v -42.031 h -74.39 v -139.84 c 0,-13.379 3.34,-23.242 10.03,-29.629 6.69,-6.387 15.48,-9.57 26.34,-9.57" /><path
         id="path76"
         style="fill:#100f0d;fill-opacity:1;fill-rule:nonzero;stroke:none"
         d="m 1783.44,464.691 c 11.17,0 20.38,-0.789 27.62,-2.371 l -5.43,-51.718 c -7.88,1.894 -16.06,2.832 -24.56,2.832 -22.2,0 -40.2,-7.246 -53.97,-21.731 -13.78,-14.48 -20.66,-33.301 -20.66,-56.453 V 198.73 h -55.52 v 261.227 h 43.46 l 7.34,-46.055 h 2.82 c 8.66,15.594 19.95,27.95 33.9,37.09 13.92,9.141 28.93,13.699 45,13.699" /><path
         id="path78"
         style="fill:#100f0d;fill-opacity:1;fill-rule:nonzero;stroke:none"
         d="m 1925.05,236.523 c 20.15,0 36.32,5.625 48.52,16.895 12.21,11.25 18.31,27.051 18.31,47.344 v 22.676 l -33.54,-1.407 c -26.13,-0.937 -45.16,-5.312 -57.04,-13.105 -11.89,-7.793 -17.82,-19.727 -17.82,-35.781 0,-11.661 3.45,-20.665 10.39,-27.051 6.91,-6.387 17.32,-9.571 31.18,-9.571 z m 82.66,-37.793 -11.11,36.387 h -1.87 c -12.62,-15.918 -25.29,-26.738 -38.04,-32.48 -12.74,-5.742 -29.13,-8.633 -49.13,-8.633 -25.67,0 -45.7,6.934 -60.1,20.801 -14.41,13.847 -21.62,33.457 -21.62,58.808 0,26.934 10,47.246 30,60.934 19.99,13.691 50.45,21.172 91.41,22.441 l 45.09,1.414 v 13.938 c 0,16.699 -3.88,29.16 -11.68,37.441 -7.79,8.262 -19.88,12.383 -36.25,12.383 -13.39,0 -26.23,-1.953 -38.5,-5.891 -12.29,-3.945 -24.09,-8.593 -35.44,-13.933 l -17.94,39.668 c 14.17,7.41 29.68,13.035 46.52,16.894 16.85,3.868 32.77,5.789 47.72,5.789 33.22,0 58.31,-7.246 75.22,-21.726 16.94,-14.492 25.4,-37.246 25.4,-68.262 V 198.73 h -39.68" /><path
         id="path80"
         style="fill:#100f0d;fill-opacity:1;fill-rule:nonzero;stroke:none"
         d="m 2220.04,194.004 c -39.52,0 -69.55,11.543 -90.1,34.609 -20.55,23.067 -30.82,56.172 -30.82,99.321 0,43.925 10.74,77.707 32.23,101.339 21.5,23.614 52.56,35.418 93.18,35.418 27.56,0 52.35,-5.117 74.41,-15.359 l -16.78,-44.641 c -23.46,9.133 -42.82,13.704 -58.1,13.704 -45.19,0 -67.79,-29.993 -67.79,-89.981 0,-29.293 5.63,-51.305 16.89,-66.031 11.26,-14.707 27.76,-22.09 49.48,-22.09 24.72,0 48.11,6.152 70.15,18.437 v -48.417 c -9.92,-5.84 -20.5,-10 -31.76,-12.52 -11.26,-2.52 -24.93,-3.789 -40.99,-3.789" /><path
         id="path82"
         style="fill:#100f0d;fill-opacity:1;fill-rule:nonzero;stroke:none"
         d="m 2451.52,238.887 c 13.54,0 27.08,2.129 40.63,6.386 v -41.816 c -6.15,-2.676 -14.05,-4.922 -23.73,-6.738 -9.69,-1.797 -19.73,-2.715 -30.12,-2.715 -52.6,0 -78.9,27.715 -78.9,83.144 v 140.778 h -35.66 v 24.558 l 38.26,20.325 18.9,55.261 h 34.26 v -58.113 h 74.39 v -42.031 h -74.39 v -139.84 c 0,-13.379 3.34,-23.242 10.03,-29.629 6.69,-6.387 15.47,-9.57 26.33,-9.57" /><path
         id="path84"
         style="fill:#100f0d;fill-opacity:1;fill-rule:nonzero;stroke:none"
         d="m 2585.92,329.82 c 0,-60.308 22.28,-90.465 66.84,-90.465 44.09,0 66.15,30.157 66.15,90.465 0,59.688 -22.22,89.512 -66.62,89.512 -23.31,0 -40.2,-7.707 -50.67,-23.144 -10.47,-15.43 -15.7,-37.54 -15.7,-66.368 z m 190.13,0 c 0,-42.672 -10.94,-75.972 -32.83,-99.898 -21.89,-23.945 -52.36,-35.918 -91.4,-35.918 -24.42,0 -45.98,5.508 -64.72,16.543 -18.74,11.016 -33.14,26.836 -43.22,47.48 -10.07,20.625 -15.12,44.551 -15.12,71.793 0,42.364 10.87,75.43 32.59,99.2 21.74,23.777 52.36,35.671 91.89,35.671 37.79,0 67.7,-12.156 89.75,-36.492 22.04,-24.328 33.06,-57.121 33.06,-98.379" /><path
         id="path86"
         style="fill:#100f0d;fill-opacity:1;fill-rule:nonzero;stroke:none"
         d="m 2972.33,464.691 c 11.18,0 20.38,-0.789 27.63,-2.371 l -5.43,-51.718 c -7.87,1.894 -16.05,2.832 -24.57,2.832 -22.2,0 -40.19,-7.246 -53.96,-21.731 -13.78,-14.48 -20.67,-33.301 -20.67,-56.453 V 198.73 h -55.51 v 261.227 h 43.46 l 7.33,-46.055 h 2.83 c 8.66,15.594 19.96,27.95 33.89,37.09 13.94,9.141 28.94,13.699 45,13.699" /><path
         id="path88"
         style="fill:#ed163a;fill-opacity:1;fill-rule:nonzero;stroke:none"
         d="M 600,369.039 C 600,203.34 465.703,69.0234 300,69.0234 134.285,69.0234 0,203.34 0,369.039 c 0,165.691 134.285,300 300,300 165.703,0 300,-134.309 300,-300" /><path
         id="path90"
         style="fill:#d51c2f;fill-opacity:1;fill-rule:nonzero;stroke:none"
         d="m 454.863,513.734 -102.031,0.93 -59.656,59.656 -70.031,-46.511 12.089,-12.082 -28.371,0.253 -96.289,-162.039 H 72.793 L 96.4844,330.238 72.6172,290.059 293.586,69.1016 c 2.129,-0.0391 4.273,-0.0782 6.414,-0.0782 165.535,0 299.746,134.1016 300,299.5746 L 454.863,513.734" /><path
         id="path92"
         style="fill:#f5f5f5;fill-opacity:1;fill-rule:nonzero;stroke:none"
         d="m 152.188,347.113 c 0,81.641 66.179,147.793 147.812,147.793 81.621,0 147.781,-66.152 147.781,-147.793 z m 332.265,-6.816 v 13.644 h 42.754 c -1.699,57.637 -24.824,109.864 -61.719,149.024 l -31.941,-31.953 -9.641,9.656 31.934,31.945 c -39.16,36.895 -91.387,60.02 -149.016,61.707 l -0.015,-42.742 H 293.176 V 574.32 C 235.535,572.633 183.32,549.496 144.16,512.613 l 31.945,-31.945 -9.66,-9.637 -31.941,31.934 C 97.6172,463.805 74.4922,411.578 72.793,353.941 h 42.742 l -0.008,-13.632 H 72.6172 V 290.273 H 527.383 v 50.024 h -42.93" /></g></g></svg>